<svg width="36" height="36" viewBox="0 0 36 36" fill="none" xmlns="http://www.w3.org/2000/svg">
    <circle cx="18" cy="18" r="18" fill="#F24E1E"/>
    <path d="M25.2336 13.5367C25.3937 13.3874 25.5228 13.2081 25.6136 13.0089C25.7044 12.8097 25.7551 12.5946 25.7628 12.3759C25.7704 12.1571 25.7349 11.939 25.6583 11.7339C25.5816 11.5289 25.4654 11.341 25.3161 11.1809C25.1668 11.0208 24.9875 10.8916 24.7883 10.8008C24.5891 10.71 24.374 10.6594 24.1553 10.6517C23.9365 10.644 23.7184 10.6795 23.5133 10.7562C23.3083 10.8328 23.1204 10.9491 22.9603 11.0984L18.0836 15.645L13.5369 10.7667C13.2327 10.4551 12.8186 10.2749 12.3833 10.2648C11.9479 10.2546 11.5259 10.4153 11.2074 10.7124C10.889 11.0094 10.6995 11.4193 10.6795 11.8544C10.6595 12.2894 10.8105 12.7149 11.1003 13.04L15.6469 17.9167L10.7686 22.4634C10.6028 22.6111 10.4683 22.7905 10.3728 22.991C10.2774 23.1915 10.2229 23.409 10.2127 23.6308C10.2025 23.8526 10.2367 24.0743 10.3133 24.2827C10.39 24.4911 10.5075 24.6821 10.659 24.8444C10.8104 25.0068 10.9928 25.1373 11.1954 25.2282C11.398 25.319 11.6168 25.3685 11.8387 25.3737C12.0607 25.3789 12.2815 25.3396 12.4881 25.2583C12.6948 25.177 12.883 25.0551 13.0419 24.9L17.9186 20.355L22.4653 25.2317C22.6121 25.4005 22.7914 25.538 22.9924 25.6361C23.1935 25.7341 23.4123 25.7907 23.6357 25.8024C23.8591 25.8141 24.0826 25.7807 24.2929 25.7042C24.5031 25.6277 24.6958 25.5096 24.8594 25.3571C25.0231 25.2045 25.1543 25.0206 25.2453 24.8162C25.3364 24.6119 25.3853 24.3913 25.3893 24.1676C25.3933 23.9439 25.3522 23.7217 25.2684 23.5142C25.1847 23.3068 25.0601 23.1183 24.9019 22.96L20.3569 18.0834L25.2336 13.5367Z" fill="white"/>
</svg>
